<svg width="96" height="96" viewBox="0 0 96 96" fill="none" xmlns="http://www.w3.org/2000/svg">
<g clip-path="url(#clip0_11_235)">
<g clip-path="url(#clip1_11_235)">
<path d="M79.0169 40.3085C80.9845 43.1407 82.5347 46.271 83.608 49.61C84.6812 52.9638 85.2626 56.5115 85.2626 60.1784C85.2626 70.0761 81.1037 79.0347 74.3661 85.5338C67.6435 92.0031 58.3718 96.0129 48.1313 96.0129C37.8907 96.0129 28.6191 92.0031 21.8964 85.5338C15.1588 79.0497 11 70.091 11 60.1784C11 56.9885 11.4323 53.8731 12.2521 50.9068C13.072 47.9554 14.2645 45.153 15.7849 42.5593C16.0532 38.0279 15.7104 33.3473 15.3824 28.6221C15.129 24.9999 14.8607 21.3329 14.8607 17.6958C14.8607 13.1644 17.0221 8.73722 20.3164 5.45786C23.5957 2.1785 28.0378 0.00219727 32.5543 0.00219727H62.3518C66.8833 0.00219727 71.3104 2.16359 74.5897 5.45786C77.8691 8.73722 80.0454 13.1793 80.0454 17.6958C80.0454 21.3329 79.7771 24.9999 79.5237 28.6221C79.2405 32.5722 78.9573 36.5074 79.0318 40.3085H79.0169ZM48.1164 41.6351C50.248 41.6351 52.1709 42.4997 53.572 43.886C54.9732 45.2872 55.8229 47.2101 55.8229 49.3416C55.8229 51.4732 54.9583 53.3961 53.572 54.7973C52.1709 56.1985 50.248 57.0481 48.1164 57.0481C45.9848 57.0481 44.0619 56.1836 42.6607 54.7973C41.2595 53.3961 40.4099 51.4732 40.4099 49.3416C40.4099 47.2101 41.2744 45.2872 42.6607 43.886C44.0619 42.4848 45.9848 41.6351 48.1164 41.6351ZM52.7522 44.7058C51.5597 43.5133 49.9349 42.7829 48.1164 42.7829C46.3127 42.7829 44.673 43.5133 43.4806 44.7058C42.2881 45.8983 41.5577 47.5231 41.5577 49.3416C41.5577 51.1453 42.2881 52.785 43.4806 53.9775C44.673 55.17 46.2978 55.9004 48.1164 55.9004C49.92 55.9004 51.5597 55.17 52.7522 53.9775C53.9447 52.785 54.6751 51.1602 54.6751 49.3416C54.6751 47.538 53.9447 45.8983 52.7522 44.7058ZM48.1164 35.4938C51.4852 35.4938 54.5409 36.8652 56.7471 39.0713C58.9532 41.2774 60.3245 44.3332 60.3245 47.702C60.3245 51.0708 58.9532 54.1265 56.7471 56.3326C54.5409 58.5388 51.4852 59.9101 48.1164 59.9101C44.7476 59.9101 41.6918 58.5388 39.4857 56.3326C37.2796 54.1265 35.9082 51.0708 35.9082 47.702C35.9082 44.3332 37.2796 41.2774 39.4857 39.0713C41.6918 36.8652 44.7476 35.4938 48.1164 35.4938ZM54.9583 40.86C53.1994 39.1011 50.7846 38.0279 48.1164 38.0279C45.4482 38.0279 43.0185 39.116 41.2744 40.86C39.5155 42.619 38.4423 45.0338 38.4423 47.702C38.4423 50.3702 39.5304 52.7999 41.2744 54.5439C43.0334 56.3028 45.4482 57.3761 48.1164 57.3761C50.7846 57.3761 53.2143 56.2879 54.9583 54.5439C56.7172 52.785 57.7905 50.3702 57.7905 47.702C57.7905 45.0338 56.7023 42.604 54.9583 40.86ZM81.1932 50.3553C80.1646 47.1504 78.6442 44.1394 76.7213 41.4265L76.4977 41.1134L76.4828 40.7259C76.3785 36.6267 76.6766 32.5424 76.9747 28.4283C77.2281 24.8657 77.4815 21.2733 77.4815 17.6809C77.4815 13.85 75.6183 10.0788 72.7712 7.23169C69.939 4.39952 66.1528 2.52134 62.322 2.52134H32.5245C28.6936 2.52134 24.9224 4.38461 22.0753 7.23169C19.2431 10.0639 17.3649 13.85 17.3649 17.6809C17.3649 21.2733 17.6183 24.8657 17.8717 28.4283C18.2295 33.3324 18.5723 38.2067 18.2593 43.0065L18.2444 43.3046L18.0804 43.5729C16.5898 46.0474 15.442 48.7305 14.652 51.5627C13.8918 54.2905 13.4893 57.1674 13.4893 60.1486C13.4893 69.3308 17.35 77.6485 23.5957 83.6706C29.8563 89.7076 38.5168 93.4341 48.0717 93.4341C57.6414 93.4341 66.287 89.7076 72.5476 83.6706C78.7933 77.6485 82.654 69.3308 82.654 60.1486C82.654 56.7202 82.1174 53.4259 81.1336 50.3404L81.1932 50.3553ZM35.8337 13.6861C33.9406 13.6861 32.2115 14.5208 30.9743 15.8624C29.7072 17.2337 28.9172 19.1417 28.9172 21.2584C28.9172 22.749 29.3048 24.1204 29.9756 25.2831C30.5569 26.2967 31.3469 27.1463 32.286 27.7575C34.5368 26.729 36.892 25.924 39.3366 25.3427C41.9303 24.7315 44.6432 24.3887 47.4456 24.344H47.4903C50.2927 24.3887 53.0056 24.7465 55.5993 25.3427C58.0439 25.9091 60.3991 26.729 62.6499 27.7575C63.589 27.1463 64.379 26.2967 64.9604 25.2831C65.6311 24.1204 66.0187 22.749 66.0187 21.2584C66.0187 19.1417 65.2287 17.2337 63.9616 15.8624C62.7095 14.5208 60.9953 13.6861 59.1022 13.6861H35.8784H35.8337ZM29.111 14.1482C30.8252 12.2998 33.2102 11.152 35.8337 11.152H59.0575C61.681 11.152 64.0511 12.2998 65.7802 14.1482C67.4795 15.9816 68.5229 18.4859 68.5229 21.2584C68.5229 23.1813 68.0161 24.9999 67.1217 26.5352C66.1976 28.1302 64.8709 29.4419 63.2909 30.2915L62.7244 30.5897L62.1431 30.3065C59.8923 29.2332 57.5073 28.3836 54.9881 27.8022C52.5435 27.2358 50.0244 26.9078 47.4307 26.8631C44.837 26.9078 42.3179 27.2358 39.8733 27.8022C37.369 28.3985 34.9691 29.2332 32.7183 30.3065L32.137 30.5897L31.5705 30.2915C29.9905 29.4419 28.6638 28.1302 27.7396 26.5352C26.8602 24.9849 26.3385 23.1813 26.3385 21.2584C26.3385 18.4859 27.3819 15.9816 29.0812 14.1482H29.111Z" fill="#292929"/>
</g>
</g>
<defs>
<clipPath id="clip0_11_235">
<rect width="96" height="96" fill="white"/>
</clipPath>
<clipPath id="clip1_11_235">
<rect width="74.2626" height="96" fill="white" transform="translate(11)"/>
</clipPath>
</defs>
</svg>
